inDegrees=yes
name=ik_S44_A11_T01
DataType=double
version=3
OpenSimVersion=4.3-2021-08-27-4bc7ad9
endheader
time	pelvis_tilt	pelvis_list	pelvis_rotation	pelvis_tx	pelvis_ty	pelvis_tz	hip_flexion_r	hip_adduction_r	hip_rotation_r	knee_angle_r	knee_angle_r_beta	ankle_angle_r	subtalar_angle_r	mtp_angle_r	hip_flexion_l	hip_adduction_l	hip_rotation_l	knee_angle_l	knee_angle_l_beta	ankle_angle_l	subtalar_angle_l	mtp_angle_l	lumbar_extension	lumbar_bending	lumbar_rotation	arm_flex_r	arm_add_r	arm_rot_r	elbow_flex_r	pro_sup_r	wrist_flex_r	wrist_dev_r	arm_flex_l	arm_add_l	arm_rot_l	elbow_flex_l	pro_sup_l	wrist_flex_l	wrist_dev_l
0	0	0	0	0	0.9399999999999999	0	0	0	0	0	0	0	0	0	0	0	0	0	0	0	0	0	0	0	0	0	0	0	0	89.99999999963507	0	0	0	0	0	0	89.99999999869995	0	0
0.02	-1.252954099270003	-0.2612189542274255	31.14238515955808	0	0.9399999999999999	0	1.250752537249118	-0.5812906507578623	-0.4196483495284528	1.949362469786305	0.0340227934125795	0	0	0	1.250752537249118	-0.5812906507578623	-0.4196483495284528	1.949362469786305	0.0340227934125795	0	0	0	-1.362103525732554	0.1404068881483893	15.24010564835061	1.023728320991146	-1.607555062072984	-0.5417052988723726	0.5021853717252945	92.84897421927504	0	0	0.8378219547683398	0.00717526820044283	-1.189312633775405	1.839203722821566	92.82491125109647	0	0
0.04	-1.25859627621925	-0.2617174800539994	31.4123462754979	0	0.9399999999999999	0	3.254558620725527	-1.498334940939183	-1.148121161944335	3.792318685542142	0.06618844734761387	0	0	0	3.254558620725527	-1.498334940939183	-1.148121161944335	3.792318685542142	0.06618844734761387	0	0	0	-1.352840796201875	0.1271625645202713	14.93696361657992	1.011400752200001	-1.584128523132341	-0.5197580570349062	0.5091166324957438	92.85838631080546	0	0	0.8449736712339263	0.002944001268562619	-1.285253076787353	1.819807625091003	92.81201626030769	0	0
0.06	-1.267912220765589	-0.2572519494135316	31.5392798813545	0	0.9399999999999999	0	3.939724848368534	-1.805502815679215	-1.38846197588175	4.461039433119151	0.07785982616923055	0	0	0	3.939724848368534	-1.805502815679215	-1.38846197588175	4.461039433119151	0.07785982616923055	0	0	0	-1.35599274891483	0.135988717180828	14.82212122683758	1.0104319705666	-1.597247381343854	-0.5344943875397373	0.563963613381307	92.81339542021479	0	0	0.8570453104170732	0.01904207492377055	-1.318408916992451	1.830163354365769	92.82925100511706	0	0
0.08	-1.265507902166213	-0.2522027196425057	31.58350666156155	0	0.9399999999999999	0	4.377719210430068	-1.988818650776406	-1.542021174635833	4.824619993961283	0.08420550405217334	0	0	0	4.377719210430068	-1.988818650776406	-1.542021174635833	4.824619993961283	0.08420550405217334	0	0	0	-1.350059263097632	0.139452911717683	14.77346109846138	1.006390338529581	-1.588012401480298	-0.5349980162798542	0.5199465590818444	92.76622345122192	0	0	0.8358734635934661	0.01516663774310102	-1.313374136928634	1.83168988211418	92.76947715267758	0	0
0.1	-1.274232627033624	-0.2424029768587868	31.64798553333771	0	0.9399999999999999	0	4.760882052332359	-2.147834588629227	-1.675509177731132	5.149489611134697	0.08987554851154292	0	0	0	4.760882052332359	-2.147834588629227	-1.675509177731132	5.149489611134697	0.08987554851154292	0	0	0	-1.350880294265989	0.1528984153445006	14.72038962829123	0.9739640845074631	-1.595524769618425	-0.5432535381897786	0.5619311742646642	92.7432511981395	0	0	0.8156003572061817	0.03905581480952845	-1.277165912134765	1.855716420925749	92.72347827872396	0	0
0.12	-1.277099102751452	-0.2371533554985553	31.71937357024159	0	0.9399999999999999	0	5.209643062680611	-2.335636575696638	-1.830467635058234	5.554819277825294	0.09694988575130502	0	0	0	5.209643062680611	-2.335636575696638	-1.830467635058234	5.554819277825294	0.09694988575130502	0	0	0	-1.348776361336327	0.1579516840298616	14.67691165720365	0.9684074652861959	-1.59615607580262	-0.5636489944173612	0.5715383478329495	92.68530512922473	0	0	0.7882665578091036	0.02971894087700976	-1.20823453221062	1.874273153207688	92.70921210120866	0	0
0.14	-1.298308471198726	-0.2332548846943322	31.77847883564682	0	0.9399999999999999	0	5.649150844773586	-2.517490045239402	-1.98123168113361	5.95711424612858	0.1039712575124036	0	0	0	5.649150844773586	-2.517490045239402	-1.98123168113361	5.95711424612858	0.1039712575124036	0	0	0	-1.363566624494666	0.1730326983702138	14.60741075300815	0.9591220108811538	-1.594829328969952	-0.5734855957511611	0.6615140130164515	92.68417586810281	0	0	0.8099437281887429	0.0375889600685411	-1.179568036090535	1.841098541490515	92.74369776241848	0	0
